<?xml version="1.0" standalone="no"?>
<!DOCTYPE svg PUBLIC "-//W3C//DTD SVG 20010904//EN"
 "http://www.w3.org/TR/2001/REC-SVG-20010904/DTD/svg10.dtd">
<svg version="1.0" xmlns="http://www.w3.org/2000/svg"
 width="20.000000pt" height="19.000000pt" viewBox="0 0 20.000000 19.000000"
 preserveAspectRatio="xMidYMid meet">
<metadata>
Created by potrace 1.16, written by Peter Selinger 2001-2019
</metadata>
<g transform="translate(0.000000,19.000000) scale(0.014599,-0.014394)"
fill="#000000" stroke="none">
<path d="M250 1270 c-64 -33 -121 -117 -106 -156 3 -8 2 -13 -2 -10 -4 2 -8
-187 -10 -420 -2 -360 0 -428 12 -453 9 -16 23 -31 31 -35 9 -3 244 -6 521 -6
l504 0 20 32 c20 32 20 47 18 478 -3 492 0 471 -70 538 -19 18 -50 37 -69 42
-20 6 -193 10 -424 9 -358 0 -393 -2 -425 -19z m824 -88 c58 -34 65 -65 66
-287 1 -171 -1 -201 -14 -211 -9 -6 -16 -15 -16 -20 0 -5 -16 -17 -36 -26 -31
-16 -72 -18 -392 -18 -340 0 -359 1 -390 20 -55 34 -63 69 -63 271 0 197 8
231 60 268 36 26 46 26 426 23 289 -2 333 -5 359 -20z m-742 -706 c58 -13 80
-99 36 -140 -32 -29 -96 -23 -125 12 -11 15 -19 30 -17 33 2 3 4 22 6 42 1 20
5 34 8 32 4 -2 14 5 23 15 9 11 22 18 29 16 7 -3 25 -7 40 -10z m783 2 c4 4 5
2 4 -3 -2 -6 2 -20 9 -33 13 -23 14 -104 1 -96 -4 2 -12 -2 -16 -11 -10 -17
-101 -27 -110 -11 -4 5 0 6 8 1 8 -4 4 2 -9 15 l-23 22 -24 -22 c-22 -21 -30
-21 -261 -20 -211 0 -240 2 -252 17 -16 22 -15 30 2 36 8 3 123 7 256 8 178 1
244 -2 255 -11 8 -7 16 -9 17 -4 0 5 2 14 3 19 9 56 19 74 47 88 21 10 40 12
59 7 15 -5 30 -5 34 -2z m-167 -7 c8 -5 12 -17 10 -27 -3 -18 -19 -19 -247
-24 -259 -5 -279 -2 -267 38 7 22 10 22 249 22 133 0 248 -4 255 -9z"/>
<path d="M40 960 c0 -5 -5 -9 -12 -7 -7 1 -12 -3 -13 -10 0 -6 -3 -15 -7 -19
-5 -4 -8 -56 -8 -115 0 -84 3 -111 16 -123 19 -19 26 -20 43 -3 11 10 12 9 6
-3 -7 -12 -6 -13 6 -2 15 14 26 202 15 247 -6 25 -46 55 -46 35z"/>
<path d="M1297 952 c-14 -15 -17 -41 -17 -134 0 -99 3 -117 18 -131 23 -21 36
-21 56 -2 12 12 15 39 14 123 -1 102 -11 162 -25 148 -3 -3 -12 -1 -18 4 -8 7
-17 4 -28 -8z"/>
<path d="M264 126 c-3 -8 -4 -31 -2 -52 4 -45 40 -73 67 -51 12 9 13 9 8 0 -6
-9 1 -11 23 -8 48 6 60 22 60 76 l0 49 -75 0 c-56 0 -77 -4 -81 -14z"/>
<path d="M955 130 c-3 -5 -5 -28 -3 -51 2 -39 25 -69 53 -69 5 0 3 5 -5 11
-12 9 -11 10 5 4 39 -13 65 -15 65 -5 0 6 5 8 10 5 13 -8 30 37 30 81 l0 34
-74 0 c-41 0 -78 -4 -81 -10z"/>
</g>
</svg>
